<svg width="1486" height="432" viewBox="0 0 1486 432" fill="none" xmlns="http://www.w3.org/2000/svg">
<g clip-path="url(#clip0)">
<path fill-rule="evenodd" clip-rule="evenodd" d="M1413.33 201.868L1436.76 186.154L1485.84 254.07L1462.4 269.784L1413.33 201.868ZM1425.46 184.023L1428.77 188.551L1418.57 195.476L1415.26 190.682C1408.37 194.411 1400.37 196.275 1391.83 196.275C1364.26 196.275 1341.65 174.702 1341.65 147.801C1341.65 121.168 1364.26 99.5942 1391.83 99.5942C1419.67 99.5942 1442 121.168 1442 147.801C1442 162.184 1435.66 174.968 1425.46 184.023ZM1391.83 189.616C1367.84 189.616 1348.54 170.973 1348.54 147.801C1348.54 124.896 1367.84 105.986 1391.83 105.986C1415.81 105.986 1435.11 124.896 1435.11 147.801C1435.11 170.973 1415.81 189.616 1391.83 189.616Z" fill="#96989A"/>
<path d="M444.568 146.972C431.059 124.334 401.009 109.951 369.581 109.951C300.935 109.685 247.176 150.701 247.176 229.005C247.176 308.64 298.454 350.188 368.202 349.656C394.393 349.123 431.059 336.339 444.568 309.439V342.731H502.186V115.012H444.568V146.972ZM374.819 160.289C466.347 160.289 466.347 297.986 374.819 297.986C336.223 297.986 305.346 272.151 305.346 229.005C305.346 185.591 336.223 160.289 374.819 160.289Z" fill="#1984E6"/>
<path d="M749.203 342.78V221.064C749.203 191.234 768.777 164.866 800.205 164.866C831.633 164.866 844.59 190.169 844.59 220.265V342.78H902.76V220.265C902.76 152.082 869.678 112.398 802.962 112.398C772.36 112.398 745.343 121.72 724.391 153.947C710.882 122.519 682.762 111.333 654.642 111.333C632.312 111.333 605.018 119.855 592.613 142.76V115.061H534.443V342.78H592.613V221.064C592.613 191.234 611.359 164.067 642.788 164.067C674.767 164.067 691.033 191.234 691.033 221.064V342.78H749.203Z" fill="#1984E6"/>
<path d="M1065.14 294.038C1025.44 294.038 998.424 265.007 998.424 229.317C998.424 193.895 1023.24 164.864 1065.14 164.864C1107.04 164.864 1131.86 193.895 1131.86 229.317C1131.86 265.007 1104.84 294.038 1065.14 294.038ZM993.185 432.001V316.144C1009.73 340.913 1046.39 348.37 1071.2 348.37C1146.74 348.37 1190.03 295.902 1190.03 229.317C1190.03 162.733 1142.06 110.531 1069.55 110.531C1042.81 110.531 1011.11 121.717 993.185 147.019V115.059H935.016V432.001H993.185Z" fill="#1984E6"/>
<path d="M1362.88 244.452V342.731H1421.05V218.351H1362.88V244.452Z" fill="#96989A"/>
<path d="M1195.26 115.591V163.531H1239.1V342.777H1297.54V163.531H1326.49C1325.11 158.471 1324.56 153.411 1324.56 147.818C1324.56 136.099 1327.87 125.179 1333.38 115.591H1297.54C1297.54 85.4945 1320.42 60.4587 1350.75 56.4636V0C1288.44 4.26141 1239.1 54.3329 1239.1 115.591H1195.26Z" fill="#96989A"/>
<path d="M1357.64 147.772C1357.64 191.718 1426.29 191.718 1426.29 147.772C1426.29 104.093 1357.64 104.093 1357.64 147.772Z" fill="#1984E6"/>
<path d="M0 122.37C0 123.17 97.2692 343.47 99.1358 347.07L100.691 349.87H131.49H162.392L176.806 317.17C184.687 299.07 206.982 248.37 226.374 204.37C245.662 160.37 261.735 123.77 262.046 123.07C262.461 122.07 256.135 121.87 231.144 122.07L199.62 122.37L183.754 159.37C175.043 179.67 160.318 216.57 150.881 241.37C129.519 298.07 131.697 292.67 130.66 290.87C130.245 290.07 121.846 268.47 112.202 242.87C102.454 217.27 87.3142 179.67 78.4998 159.37L62.4265 122.37L31.2133 122.07C13.9993 121.97 0 122.07 0 122.37Z" fill="#1984E6"/>
</g>
<defs>
<clipPath id="clip0">
<rect width="1486" height="432" fill="white"/>
</clipPath>
</defs>
</svg>
